<mxfile host="65bd71144e">
    <diagram id="TA91cQxe3ISVGfm7Xs7w" name="PÃ¡gina-1">
        <mxGraphModel dx="563" dy="823" grid="1" gridSize="10" guides="1" tooltips="1" connect="1" arrows="1" fold="1" page="1" pageScale="1" pageWidth="827" pageHeight="1169" math="0" shadow="0">
            <root>
                <mxCell id="0"/>
                <mxCell id="1" parent="0"/>
                <mxCell id="2" value="inicio" style="ellipse;whiteSpace=wrap;html=1;" vertex="1" parent="1">
                    <mxGeometry x="370" y="130" width="120" height="80" as="geometry"/>
                </mxCell>
                <mxCell id="3" value="" style="shape=flexArrow;endArrow=classic;html=1;" edge="1" parent="1">
                    <mxGeometry width="50" height="50" relative="1" as="geometry">
                        <mxPoint x="434" y="219" as="sourcePoint"/>
                        <mxPoint x="434.29" y="269" as="targetPoint"/>
                    </mxGeometry>
                </mxCell>
                <mxCell id="6" value="determinar variables" style="shape=process;whiteSpace=wrap;html=1;backgroundOutline=1;" vertex="1" parent="1">
                    <mxGeometry x="370" y="270" width="120" height="60" as="geometry"/>
                </mxCell>
                <mxCell id="7" value="ingrese&amp;nbsp; tres numeros&amp;nbsp;" style="shape=parallelogram;perimeter=parallelogramPerimeter;whiteSpace=wrap;html=1;fixedSize=1;" vertex="1" parent="1">
                    <mxGeometry x="320" y="390" width="220" height="60" as="geometry"/>
                </mxCell>
                <mxCell id="8" value="" style="shape=flexArrow;endArrow=classic;html=1;" edge="1" parent="1">
                    <mxGeometry width="50" height="50" relative="1" as="geometry">
                        <mxPoint x="429.76" y="330" as="sourcePoint"/>
                        <mxPoint x="430.04999999999995" y="380" as="targetPoint"/>
                        <Array as="points">
                            <mxPoint x="429.76" y="350"/>
                            <mxPoint x="429.76" y="370"/>
                        </Array>
                    </mxGeometry>
                </mxCell>
                <mxCell id="9" value="" style="shape=flexArrow;endArrow=classic;html=1;" edge="1" parent="1">
                    <mxGeometry width="50" height="50" relative="1" as="geometry">
                        <mxPoint x="429.58" y="460" as="sourcePoint"/>
                        <mxPoint x="429.58" y="530" as="targetPoint"/>
                    </mxGeometry>
                </mxCell>
                <mxCell id="10" value="guardamos Numeros en variables&lt;br&gt;N1,N2 y N3" style="shape=process;whiteSpace=wrap;html=1;backgroundOutline=1;" vertex="1" parent="1">
                    <mxGeometry x="370" y="540" width="120" height="60" as="geometry"/>
                </mxCell>
                <mxCell id="11" value="Suma=N1+N2+N3&lt;br&gt;Promedio=Suma/3" style="shape=process;whiteSpace=wrap;html=1;backgroundOutline=1;" vertex="1" parent="1">
                    <mxGeometry x="345" y="670" width="170" height="60" as="geometry"/>
                </mxCell>
                <mxCell id="12" value="" style="shape=flexArrow;endArrow=classic;html=1;" edge="1" parent="1">
                    <mxGeometry width="50" height="50" relative="1" as="geometry">
                        <mxPoint x="429.58" y="730" as="sourcePoint"/>
                        <mxPoint x="430" y="790" as="targetPoint"/>
                    </mxGeometry>
                </mxCell>
                <mxCell id="13" value="" style="shape=flexArrow;endArrow=classic;html=1;" edge="1" parent="1">
                    <mxGeometry width="50" height="50" relative="1" as="geometry">
                        <mxPoint x="429.58" y="610" as="sourcePoint"/>
                        <mxPoint x="430.00000000000017" y="670" as="targetPoint"/>
                    </mxGeometry>
                </mxCell>
                <mxCell id="15" value="mostrar promedio" style="shape=parallelogram;perimeter=parallelogramPerimeter;whiteSpace=wrap;html=1;fixedSize=1;" vertex="1" parent="1">
                    <mxGeometry x="370" y="800" width="120" height="60" as="geometry"/>
                </mxCell>
                <mxCell id="16" value="" style="shape=flexArrow;endArrow=classic;html=1;" edge="1" parent="1">
                    <mxGeometry width="50" height="50" relative="1" as="geometry">
                        <mxPoint x="420" y="860" as="sourcePoint"/>
                        <mxPoint x="420" y="910" as="targetPoint"/>
                    </mxGeometry>
                </mxCell>
                <mxCell id="17" value="fin" style="ellipse;whiteSpace=wrap;html=1;" vertex="1" parent="1">
                    <mxGeometry x="360" y="910" width="120" height="80" as="geometry"/>
                </mxCell>
            </root>
        </mxGraphModel>
    </diagram>
</mxfile>